<?xml version="1.0" encoding="utf-8"?>
<!-- Generator: Adobe Illustrator 23.0.0, SVG Export Plug-In . SVG Version: 6.00 Build 0)  -->
<svg version="1.1" id="Layer_1" xmlns="http://www.w3.org/2000/svg" xmlns:xlink="http://www.w3.org/1999/xlink" x="0px" y="0px"
	 viewBox="0 0 40 40" style="enable-background:new 0 0 40 40;" xml:space="preserve">
<style type="text/css">
	.st0{fill:#FFFFFF;}
</style>
<g>
	<path class="st0" d="M39.55,11.9c-0.09-2.09-0.43-3.52-0.91-4.77c-0.5-1.32-1.27-2.5-2.27-3.49c-0.98-1-2.17-1.77-3.48-2.27
		c-1.25-0.48-2.68-0.82-4.77-0.91c-2.1-0.1-2.77-0.12-8.11-0.12S14,0.37,11.91,0.46C9.82,0.55,8.38,0.89,7.14,1.37
		c-1.32,0.5-2.5,1.27-3.49,2.27c-1,0.98-1.77,2.17-2.27,3.48C0.9,8.38,0.56,9.81,0.47,11.89C0.37,14,0.35,14.67,0.35,20
		s0.02,6.01,0.12,8.1c0.09,2.09,0.43,3.52,0.91,4.77c0.5,1.32,1.27,2.5,2.27,3.49c0.98,1,2.17,1.77,3.48,2.27
		c1.25,0.48,2.68,0.82,4.77,0.91c2.1,0.09,2.76,0.12,8.1,0.12s6.01-0.02,8.1-0.12c2.09-0.09,3.52-0.43,4.77-0.91
		c2.64-1.02,4.73-3.11,5.75-5.75c0.48-1.25,0.82-2.68,0.91-4.77c0.09-2.1,0.12-2.76,0.12-8.1S39.64,14,39.55,11.9z M36.01,27.95
		c-0.08,1.92-0.41,2.96-0.68,3.65c-0.66,1.71-2.02,3.07-3.73,3.73c-0.69,0.27-1.74,0.59-3.65,0.68c-2.07,0.09-2.7,0.12-7.94,0.12
		s-5.87-0.02-7.94-0.12c-1.92-0.08-2.96-0.41-3.65-0.68c-0.85-0.31-1.63-0.81-2.26-1.47c-0.65-0.64-1.15-1.41-1.47-2.26
		c-0.27-0.69-0.59-1.74-0.68-3.65c-0.09-2.07-0.12-2.7-0.12-7.94s0.02-5.87,0.12-7.94c0.08-1.92,0.41-2.96,0.68-3.65
		C5.02,7.58,5.52,6.8,6.18,6.17c0.64-0.65,1.41-1.15,2.26-1.47c0.69-0.27,1.74-0.59,3.65-0.68c2.07-0.09,2.7-0.12,7.94-0.12
		c5.25,0,5.87,0.02,7.94,0.12c1.92,0.08,2.96,0.41,3.65,0.68c0.85,0.31,1.63,0.81,2.26,1.47c0.65,0.64,1.15,1.41,1.47,2.26
		c0.27,0.69,0.59,1.74,0.68,3.65c0.09,2.07,0.12,2.7,0.12,7.94S36.1,25.88,36.01,27.95z"/>
	<path class="st0" d="M20.01,9.91c-5.58,0-10.1,4.52-10.1,10.1s4.52,10.1,10.1,10.1c5.58,0,10.1-4.52,10.1-10.1
		S25.58,9.91,20.01,9.91z M20.01,26.55c-3.62,0-6.55-2.93-6.55-6.55s2.93-6.55,6.55-6.55c3.62,0,6.55,2.93,6.55,6.55
		S23.62,26.55,20.01,26.55z"/>
	<path class="st0" d="M32.86,9.51c0,1.3-1.06,2.36-2.36,2.36c-1.3,0-2.36-1.06-2.36-2.36c0-1.3,1.06-2.36,2.36-2.36
		C31.81,7.15,32.86,8.2,32.86,9.51z"/>
</g>
</svg>
