<?xml version="1.0" encoding="utf-8"?>
<!-- Generator: Adobe Illustrator 23.0.0, SVG Export Plug-In . SVG Version: 6.00 Build 0)  -->
<svg version="1.1" id="Layer_1" xmlns="http://www.w3.org/2000/svg" xmlns:xlink="http://www.w3.org/1999/xlink" x="0px" y="0px"
	 viewBox="0 0 40 40" style="enable-background:new 0 0 40 40;" xml:space="preserve">
<style type="text/css">
	.st0{fill:#FFFFFF;}
</style>
<path class="st0" d="M38.99,39L38.99,39L38.99,39L39,25.06c0-6.82-1.47-12.07-9.44-12.07c-3.83,0-6.4,2.1-7.45,4.1H22v-3.46h-7.56
	V39h7.87V26.44c0-3.31,0.63-6.51,4.72-6.51c4.04,0,4.1,3.77,4.1,6.72V39L38.99,39z"/>
<path class="st0" d="M1.63,13.63h7.88V39H1.63L1.63,13.63z"/>
<path class="st0" d="M5.56,1C3.04,1,1,3.04,1,5.56s2.04,4.61,4.56,4.61s4.56-2.09,4.56-4.61C10.12,3.04,8.08,1,5.56,1z"/>
</svg>
