<?xml version="1.0" encoding="utf-8"?>
<!-- Generator: Adobe Illustrator 23.0.0, SVG Export Plug-In . SVG Version: 6.00 Build 0)  -->
<svg version="1.1" id="Layer_1" xmlns="http://www.w3.org/2000/svg" xmlns:xlink="http://www.w3.org/1999/xlink" x="0px" y="0px"
	 viewBox="0 0 60 60" style="enable-background:new 0 0 60 60;" xml:space="preserve">
<style type="text/css">
	.st0{fill-rule:evenodd;clip-rule:evenodd;fill:#FFFFFF;}
	.st1{fill-rule:evenodd;clip-rule:evenodd;fill:#2DB9EB;}
	.st2{fill:#0E1130;}
</style>
<g>
	<g>
		<path class="st0" d="M1,27.26c3.63,3.63,7.25,7.25,10.85,10.85c3.63-3.63,7.26-7.26,10.89-10.89c-0.02-0.03-0.06-0.06-0.09-0.1
			c-1.69-1.7-3.38-3.4-5.07-5.1c-0.1-0.1-0.19-0.13-0.33-0.13c-3.57,0-7.13,0-10.7,0c-0.14,0-0.24,0.04-0.34,0.14
			c-1.7,1.7-3.4,3.4-5.09,5.1C1.08,27.17,1.05,27.21,1,27.26z"/>
		<path class="st1" d="M1,27.26c0.05-0.05,0.08-0.09,0.12-0.13c1.7-1.7,3.4-3.4,5.09-5.1c0.1-0.1,0.19-0.14,0.34-0.14
			c3.57,0,7.13,0,10.7,0c0.13,0,0.23,0.03,0.33,0.13c1.69,1.7,3.38,3.4,5.07,5.1c0.04,0.04,0.07,0.07,0.09,0.1
			c-3.64,3.63-7.26,7.26-10.89,10.89C8.25,34.51,4.63,30.89,1,27.26z M20.78,27.26c-1.17-1.17-2.33-2.33-3.47-3.47
			c-1.77,1.73-3.56,3.48-5.37,5.24c-1.77-1.77-3.57-3.57-5.35-5.35C5.38,24.89,4.18,26.09,3,27.27c2.95,2.95,5.92,5.92,8.88,8.88
			C14.85,33.2,17.82,30.22,20.78,27.26z"/>
		<path class="st0" d="M20.78,27.26c-2.96,2.96-5.93,5.93-8.89,8.89C8.92,33.19,5.96,30.22,3,27.27c1.18-1.18,2.38-2.38,3.58-3.59
			c1.78,1.78,3.58,3.58,5.35,5.35c1.81-1.76,3.59-3.51,5.37-5.24C18.44,24.93,19.61,26.09,20.78,27.26z"/>
	</g>
	<g>
		<path class="st2" d="M35.51,24.45v9.45h-0.96v-7.92l-3.27,7.92h-0.86l-3.29-7.89v7.89h-0.97v-9.45h1.14l3.56,8.26l3.53-8.26H35.51
			z"/>
		<path class="st2" d="M39.67,24.24v9.66H38.7v-9.66H39.67z"/>
		<path class="st2" d="M49.33,24.24l-3.11,5.89v3.77h-0.97v-3.77l-3.12-5.89h1.11l2.49,4.86l2.49-4.86H49.33z"/>
		<path class="st2" d="M59,33.9h-0.97l-5.29-8.07v8.07h-0.97v-9.64h0.97l5.29,8.08v-8.08H59V33.9z"/>
	</g>
</g>
</svg>
