<?xml version="1.0" encoding="utf-8"?>
<!-- Generator: Adobe Illustrator 23.0.0, SVG Export Plug-In . SVG Version: 6.00 Build 0)  -->
<svg version="1.1" id="Layer_1" xmlns="http://www.w3.org/2000/svg" xmlns:xlink="http://www.w3.org/1999/xlink" x="0px" y="0px"
	 viewBox="0 0 40 40" style="enable-background:new 0 0 40 40;" xml:space="preserve">
<style type="text/css">
	.st0{fill:#FFFFFF;}
</style>
<g>
	<g>
		<path class="st0" d="M39,8.22c-1.41,0.62-2.92,1.03-4.49,1.23c1.62-0.96,2.85-2.48,3.43-4.31c-1.51,0.9-3.17,1.53-4.94,1.89
			c-1.43-1.52-3.47-2.47-5.69-2.47c-4.31,0-7.79,3.5-7.79,7.79c0,0.62,0.05,1.21,0.18,1.78C13.23,13.82,7.5,10.71,3.65,5.98
			c-0.67,1.17-1.07,2.5-1.07,3.94c0,2.7,1.39,5.09,3.46,6.47c-1.25-0.02-2.48-0.39-3.52-0.96c0,0.02,0,0.05,0,0.09
			c0,3.79,2.7,6.93,6.24,7.65c-0.63,0.17-1.33,0.26-2.04,0.26c-0.5,0-1-0.03-1.47-0.13c1.01,3.09,3.87,5.35,7.28,5.43
			c-2.65,2.07-6.02,3.32-9.66,3.32c-0.64,0-1.25-0.03-1.86-0.11c3.45,2.23,7.54,3.5,11.95,3.5c14.34,0,22.17-11.88,22.17-22.17
			c0-0.34-0.01-0.68-0.03-1.01C36.64,11.16,37.94,9.79,39,8.22z"/>
	</g>
</g>
</svg>
