<svg id="Layer_1" data-name="Layer 1" xmlns="http://www.w3.org/2000/svg" viewBox="0 0 25.6 23.58"><defs><style>.cls-1{fill:#fff;stroke:#fff;}</style></defs><title>quote 1</title><g id="chat"><path id="Path_11" data-name="Path 11" class="cls-1" d="M4.6,9.93H9.93a.41.41,0,0,0,0-.82H4.6a.41.41,0,0,0,0,.82Z" transform="translate(0 0)"/><path id="Path_12" data-name="Path 12" class="cls-1" d="M15.26,11.57H4.6a.41.41,0,0,0,0,.82H15.26a.41.41,0,1,0,0-.82Z" transform="translate(0 0)"/><path id="Path_13" data-name="Path 13" class="cls-1" d="M15.26,14H4.6a.41.41,0,0,0,0,.82H15.26a.41.41,0,0,0,0-.82Z" transform="translate(0 0)"/><path id="Path_14" data-name="Path 14" class="cls-1" d="M22.67.53l-14,0A2.43,2.43,0,0,0,6.24,2.94V5H2.93A2.43,2.43,0,0,0,.5,7.47v8.67a2.44,2.44,0,0,0,2.43,2.43H5.42v4.1a.41.41,0,0,0,.41.41.37.37,0,0,0,.3-.14l4-4.38,6.82,0a2.43,2.43,0,0,0,2.43-2.43v-.05l2.16,2.37a.41.41,0,0,0,.58,0,.43.43,0,0,0,.13-.3v-4.1h.44a2.43,2.43,0,0,0,2.43-2.43V3A2.43,2.43,0,0,0,22.67.53ZM18.54,16.11a1.61,1.61,0,0,1-1.61,1.61l-7,0a.4.4,0,0,0-.3.13L6.24,21.61V18.16a.41.41,0,0,0-.41-.41H2.93a1.61,1.61,0,0,1-1.61-1.61V7.47A1.61,1.61,0,0,1,2.93,5.86H6.65l10.28,0a1.61,1.61,0,0,1,1.61,1.61Zm5.74-4.48a1.6,1.6,0,0,1-1.61,1.6h-.85a.41.41,0,0,0-.41.41v3.45l-2.05-2.25V7.44A2.43,2.43,0,0,0,16.93,5L7.06,5V2.94A1.61,1.61,0,0,1,8.67,1.32h0l14,0h0A1.61,1.61,0,0,1,24.28,3v8.67Z" transform="translate(0 0)"/></g></svg>