<svg id="Layer_1" data-name="Layer 1" xmlns="http://www.w3.org/2000/svg" viewBox="0 0 37.85 19.19"><defs><style>.cls-1{fill:#629e5c;}</style></defs><title>hear from u 1</title><g id="Group_86" data-name="Group 86"><path id="Path_5" data-name="Path 5" class="cls-1" d="M37.19,19.17h.16l0,0,0,0,0,0,0,0,0,0,0,0,.05,0h0l.05-.05,0,0,0,0s0,0,0,0l0,0a.05.05,0,0,1,0,0s0,0,0,0l0,0s0,0,0,0,0,0,0,0,0,0,0,0a.11.11,0,0,1,0-.05V.82A.83.83,0,0,0,37,0H11l0,0h-.07l0,0,0,0,0,0,0,0,0,0,0,0,0,0,0,0v0h0l0,0,0,0,0,0,0,0a.08.08,0,0,0,0,0l0,0v0l0,0s0,0,0,0,0,0,0,0a0,0,0,0,1,0,0v0s0,0,0,0V.8h0V5.87a.82.82,0,1,0,1.64,0h0V2.64L19.3,9.1l-.11.09L12,16.38V11a.82.82,0,0,0-1.64,0h0v1H6.11a.82.82,0,0,0,0,1.64h4.25v4.73a.82.82,0,0,0,.82.83h26Zm-1-2.78L29,9.2v0l5.4-4.58a.82.82,0,0,0-1.06-1.26l-9.24,7.84L13.34,1.64H36.21V16.38Zm-15.86-6a1,1,0,0,0,.14-.2l3.07,2.72a.81.81,0,0,0,1.07,0l3.13-2.65.1.12,7.19,7.19H13.16Z" transform="translate(0 0)"/><path id="Path_6" data-name="Path 6" class="cls-1" d="M.82,9.35H14.69a.82.82,0,0,0,0-1.64H.82a.82.82,0,0,0,0,1.64Z" transform="translate(0 0)"/><path id="Path_7" data-name="Path 7" class="cls-1" d="M2.26,4.83H8.48a.83.83,0,0,0,0-1.65H2.26a.83.83,0,0,0,0,1.65Z" transform="translate(0 0)"/><path id="Path_8" data-name="Path 8" class="cls-1" d="M6.84,15.46h-6a.82.82,0,0,0,0,1.64h6a.82.82,0,0,0,0-1.64Z" transform="translate(0 0)"/></g></svg>