<svg id="Layer_1" data-name="Layer 1" xmlns="http://www.w3.org/2000/svg" viewBox="0 0 30.18 30.11"><defs><style>.cls-1{fill:#ffa636;}</style></defs><title>Phone</title><path id="Path_4" data-name="Path 4" class="cls-1" d="M29.5,23.81l-4.66-4.66a2.44,2.44,0,0,0-3.43.07l-2.34,2.34-.47-.25A23.5,23.5,0,0,1,13,17.22a23.42,23.42,0,0,1-4.09-5.65l-.25-.46,1.57-1.57L11,8.76A2.42,2.42,0,0,0,11,5.34L6.36.68A2.42,2.42,0,0,0,2.94.74L1.62,2.06l0,0A7.35,7.35,0,0,0,.58,4,7.6,7.6,0,0,0,.09,5.94C-.52,11,1.81,15.71,8.14,22c8.74,8.75,15.79,8.09,16.1,8a8.1,8.1,0,0,0,1.94-.48,7.77,7.77,0,0,0,1.9-1.08l0,0,1.33-1.3A2.43,2.43,0,0,0,29.5,23.81Z" transform="translate(0 0)"/></svg>