<svg id="calendar" xmlns="http://www.w3.org/2000/svg" viewBox="0 0 37.82 37.82"><defs><style>.cls-1{fill:#2db9eb;}</style></defs><title>calendar</title><g id="Group_6" data-name="Group 6"><g id="Group_5" data-name="Group 5"><circle id="Ellipse_1" data-name="Ellipse 1" class="cls-1" cx="29.02" cy="15.38" r="1.7"/><path id="Path_1" data-name="Path 1" class="cls-1" d="M31.91,3H30V1.48a1.48,1.48,0,1,0-2.95,0V3H20.32V1.48a1.48,1.48,0,1,0-3,0V3H10.71V1.48a1.48,1.48,0,1,0-3,0V3H5.91A5.92,5.92,0,0,0,0,8.86V31.91a5.91,5.91,0,0,0,5.91,5.91h11.3a1.48,1.48,0,1,0,0-3H5.91a3,3,0,0,1-3-3v-23a3,3,0,0,1,3-2.95H7.76V7.39a1.48,1.48,0,0,0,3,0V5.91h6.65V7.39a1.48,1.48,0,0,0,3,0V5.91H27V7.39a1.48,1.48,0,0,0,2.95,0V5.91h1.92a3,3,0,0,1,3,2.95v8.43a1.48,1.48,0,0,0,3,0V8.86A5.92,5.92,0,0,0,31.91,3Z" transform="translate(0 0)"/><path id="Path_2" data-name="Path 2" class="cls-1" d="M28.88,20a8.94,8.94,0,1,0,8.94,8.93h0A8.93,8.93,0,0,0,28.88,20Zm0,14.92a6,6,0,1,1,6-6A6,6,0,0,1,28.88,34.87Z" transform="translate(0 0)"/><path id="Path_3" data-name="Path 3" class="cls-1" d="M31,27.41h-.67V25.86a1.48,1.48,0,1,0-2.95,0v3a1.48,1.48,0,0,0,1.48,1.48H31a1.48,1.48,0,0,0,0-2.95Z" transform="translate(0 0)"/><circle id="Ellipse_2" data-name="Ellipse 2" class="cls-1" cx="22.2" cy="15.38" r="1.7"/><circle id="Ellipse_3" data-name="Ellipse 3" class="cls-1" cx="15.38" cy="22.2" r="1.7"/><circle id="Ellipse_4" data-name="Ellipse 4" class="cls-1" cx="8.56" cy="15.38" r="1.7"/><circle id="Ellipse_5" data-name="Ellipse 5" class="cls-1" cx="8.56" cy="22.2" r="1.7"/><circle id="Ellipse_6" data-name="Ellipse 6" class="cls-1" cx="8.56" cy="29.02" r="1.7"/><circle id="Ellipse_7" data-name="Ellipse 7" class="cls-1" cx="15.38" cy="29.02" r="1.7"/><circle id="Ellipse_8" data-name="Ellipse 8" class="cls-1" cx="15.38" cy="15.38" r="1.7"/></g></g></svg>