<svg id="Layer_1" data-name="Layer 1" xmlns="http://www.w3.org/2000/svg" viewBox="0 0 34.39 32.1"><defs><style>.cls-1{fill:#c96bff;stroke:#c96bff;}</style></defs><title>File 1</title><path id="_004-folder" data-name=" 004-folder" class="cls-1" d="M30,18.83V11.68A3.72,3.72,0,0,0,26.23,8h-.16V7.87a3.73,3.73,0,0,0-3.72-3.72h-6a.25.25,0,0,1-.18-.08L14.07,1.71A3.72,3.72,0,0,0,11.32.5H4.22A3.73,3.73,0,0,0,.5,4.22V25a3.72,3.72,0,0,0,3.72,3.71H17.05a10.13,10.13,0,0,0,.07,1.65h0v0l.14.78a.55.55,0,0,0,.64.45.56.56,0,0,0,.38-.26l.4-.67c2.59-4.3,5.89-4.62,7.36-4.51v3.62a.55.55,0,0,0,.94.39l6.75-6.79a.56.56,0,0,0,0-.78ZM4.22,27.59A2.61,2.61,0,0,1,1.6,25V4.22A2.62,2.62,0,0,1,4.22,1.6h7.1a2.6,2.6,0,0,1,1.93.85l2.16,2.36a1.36,1.36,0,0,0,1,.44h6A2.63,2.63,0,0,1,25,7.87V8H10.89a3.72,3.72,0,0,0-3.72,3.72V25a2.61,2.61,0,0,1-2.62,2.61Zm13-.46c0,.15-.06.31-.08.46h-10A3.69,3.69,0,0,0,8.27,25V11.68a2.62,2.62,0,0,1,2.62-2.62H26.23a2.62,2.62,0,0,1,2.62,2.62v6.05L27,15.87a.56.56,0,0,0-.94.4v3.49a8.58,8.58,0,0,0-5.47,1.79,9.57,9.57,0,0,0-3.33,5.58Zm9.91,1.3V25.66a.56.56,0,0,0-.47-.54,7.67,7.67,0,0,0-3.68.37,9.79,9.79,0,0,0-4.85,4,9.3,9.3,0,0,1,.17-2.11,8.39,8.39,0,0,1,3-4.95l0,0s1.63-1.5,5.18-1.5h.1a.55.55,0,0,0,.55-.55h0V17.6L32.56,23Z" transform="translate(0 0)"/></svg>